# Blender v2.82 (sub 7) OBJ File: 'arbollego.blend'
# www.blender.org
mtllib arbollego.mtl
o tronco__Cube.005
v -1.000000 0.000524 1.000000
v -1.000000 0.000524 -1.000000
v 1.000000 0.000524 1.000000
v 1.000000 0.000524 -1.000000
v -1.000000 9.746240 1.000000
v -1.000000 9.746240 -1.000000
v 1.000000 9.746240 -1.000000
v 1.000000 9.746240 1.000000
v 3.175833 9.746240 3.175833
v 3.175833 9.746240 -3.175833
v -3.175833 9.746240 -3.175833
v -3.175833 9.746240 3.175833
v 1.000000 9.746240 -1.000000
v -1.000000 9.746240 -1.000000
v -1.000000 9.746240 1.000000
v 1.000000 9.746240 1.000000
vt 0.408389 0.667430
vt 0.470881 0.962947
vt 0.408389 0.962947
vt 0.996250 0.901243
vt 0.933758 0.605725
vt 0.996250 0.605725
vt 0.540872 0.962947
vt 0.478380 0.667430
vt 0.540872 0.667430
vt 0.933758 0.274746
vt 0.996250 0.570263
vt 0.933758 0.570263
vt 0.749373 0.077533
vt 0.879852 0.011556
vt 0.811866 0.077533
vt 0.749373 0.138179
vt 0.681387 0.011556
vt 0.811866 0.138179
vt 0.681387 0.204156
vt 0.879852 0.204156
vt 0.470881 0.667430
vt 0.933758 0.901243
vt 0.478380 0.962947
vt 0.996250 0.274746
vn 0.0000 0.0000 1.0000
vn 0.0000 0.0000 -1.0000
vn 1.0000 0.0000 0.0000
vn -1.0000 0.0000 0.0000
vn 0.0000 -1.0000 0.0000
usemtl tronco
s off
f 8/1/1 1/2/1 3/3/1
f 6/4/2 4/5/2 2/6/2
f 7/7/3 3/8/3 4/9/3
f 5/10/4 2/11/4 1/12/4
f 13/13/5 9/14/5 16/15/5
f 14/16/5 10/17/5 13/13/5
f 15/18/5 11/19/5 14/16/5
f 16/15/5 12/20/5 15/18/5
f 8/1/1 5/21/1 1/2/1
f 6/4/2 7/22/2 4/5/2
f 7/7/3 8/23/3 3/8/3
f 5/10/4 6/24/4 2/11/4
f 13/13/5 10/17/5 9/14/5
f 14/16/5 11/19/5 10/17/5
f 15/18/5 12/20/5 11/19/5
f 16/15/5 9/14/5 12/20/5
o hojas_Cube.006
v -5.745756 15.566383 -5.745756
v -5.745756 15.566383 5.745756
v 3.783913 15.566383 3.783913
v 3.783913 15.566383 -3.783913
v -3.783913 15.566383 -3.783913
v -3.783913 15.566383 3.783913
v 5.745756 15.566383 5.745756
v 5.745756 15.566383 -5.745756
v 5.781303 11.813286 5.781303
v 5.781303 11.813286 -5.781303
v -5.781303 11.813286 -5.781303
v -5.781303 11.813286 5.781303
v 3.175833 9.746240 3.175833
v 3.175833 9.746240 -3.175833
v 3.195481 11.813286 3.195481
v 3.195481 11.813286 -3.195481
v -3.195481 11.813286 -3.195481
v -3.195481 11.813286 3.195481
v -3.175833 9.746240 -3.175833
v -3.175833 9.746240 3.175833
v -3.783913 17.505705 3.783913
v -3.783913 17.505705 -3.783913
v 3.783913 17.505705 -3.783913
v 3.783913 17.505705 3.783913
v -1.922585 17.305941 1.922585
v -1.922585 17.305941 -1.922585
v 1.922585 17.305941 -1.922585
v 1.922585 17.305941 1.922585
v -1.919265 18.730268 1.919265
v -1.919265 18.730268 -1.919265
v 1.919265 18.730268 -1.919265
v 1.919265 18.730268 1.919265
v 0.000000 18.730268 0.000000
v 5.745756 14.065145 -5.745756
vt 0.302166 0.099446
vt 0.382962 0.371647
vt 0.302166 0.293238
vt 0.102474 0.293238
vt 0.021677 0.021037
vt 0.102474 0.099446
vt 0.382962 0.021037
vt 0.021677 0.371647
vt 0.380608 0.413591
vt 0.082844 0.473080
vt 0.021544 0.413591
vt 0.021544 0.762046
vt 0.319308 0.702557
vt 0.380608 0.762046
vt 0.082844 0.702557
vt 0.319308 0.473080
vt 0.363876 0.906545
vt 0.319371 0.790050
vt 0.363876 0.789949
vt 0.418827 0.013769
vt 0.597133 0.070209
vt 0.476986 0.070209
vt 0.655292 0.243246
vt 0.476986 0.186806
vt 0.597133 0.186806
vt 0.418827 0.243246
vt 0.655292 0.013769
vt 0.269526 0.789949
vt 0.314031 0.906445
vt 0.269526 0.906545
vt 0.219681 0.789949
vt 0.264186 0.906445
vt 0.219681 0.906545
vt 0.664134 0.903653
vt 0.619629 0.787158
vt 0.664133 0.787057
vt 0.551818 0.773077
vt 0.551818 0.656682
vt 0.611787 0.714880
vt 0.671757 0.656682
vt 0.671757 0.773077
vt 0.805703 0.627584
vt 0.805703 0.279129
vt 0.852610 0.279129
vt 0.791630 0.278052
vt 0.791630 0.628662
vt 0.721268 0.627584
vt 0.411676 0.627584
vt 0.528946 0.278052
vt 0.528946 0.628662
vt 0.148549 0.988372
vt 0.213136 0.795176
vt 0.213136 0.987777
vt 0.003875 0.988373
vt 0.068462 0.795176
vt 0.068462 0.987777
vt 0.613083 0.791689
vt 0.548497 0.984885
vt 0.548497 0.792284
vt 0.140799 0.794581
vt 0.076212 0.987777
vt 0.076212 0.795176
vt 0.750456 0.892945
vt 0.811053 0.663467
vt 0.811053 0.892945
vt 0.743185 0.663467
vt 0.682589 0.892945
vt 0.682589 0.663467
vt 0.955991 0.013769
vt 0.895395 0.243246
vt 0.895395 0.013769
vt 0.878920 0.663467
vt 0.818324 0.892945
vt 0.818324 0.663467
vt 0.660288 0.628662
vt 0.543018 0.279129
vt 0.660288 0.278052
vt 0.319371 0.906445
vt 0.314031 0.790050
vt 0.264186 0.790050
vt 0.619629 0.903552
vt 0.922973 0.278052
vt 0.922973 0.628662
vt 0.674361 0.627584
vt 0.674360 0.279130
vt 0.411676 0.279129
vt 0.148549 0.794581
vt 0.003875 0.794581
vt 0.613083 0.985480
vt 0.140799 0.988372
vt 0.750456 0.663467
vt 0.743185 0.892945
vt 0.955991 0.243246
vt 0.878920 0.892945
vt 0.543018 0.627584
vn 0.0000 -1.0000 -0.0000
vn 0.0000 1.0000 0.0000
vn 1.0000 0.0023 0.0000
vn -0.1067 0.9943 0.0000
vn 0.1067 0.9943 0.0000
vn 0.0000 0.9943 -0.1067
vn 0.0000 0.9943 0.1067
vn 0.0000 0.0023 1.0000
vn -1.0000 0.0023 0.0000
vn 0.0000 0.0023 -1.0000
vn 0.0000 0.0000 -1.0000
vn 0.9999 0.0158 0.0000
vn -1.0000 0.0095 0.0000
vn 0.0000 -0.0095 -1.0000
vn 0.0000 -0.0095 1.0000
vn -1.0000 -0.0095 0.0000
vn 1.0000 -0.0095 0.0000
vn -1.0000 0.0000 0.0000
vn 1.0000 0.0000 0.0000
vn 0.0000 0.0000 1.0000
vn 0.0000 0.0095 1.0000
vn 0.0000 0.0158 -0.9999
vn 0.0012 0.0095 -1.0000
vn 1.0000 0.0095 -0.0012
usemtl hojas
s off
f 31/25/6 28/26/6 34/27/6
f 33/28/6 26/29/6 32/30/6
f 32/30/6 25/31/6 31/25/6
f 34/27/6 27/32/6 33/28/6
f 24/33/7 19/34/7 23/35/7
f 18/36/7 21/37/7 17/38/7
f 23/35/7 22/39/7 18/36/7
f 17/38/7 20/40/7 24/33/7
f 43/41/8 48/42/8 44/43/8
f 40/44/9 43/45/9 44/46/9
f 38/47/10 41/48/10 42/49/10
f 37/50/11 44/46/11 41/48/11
f 39/51/12 42/49/12 43/45/12
f 44/52/13 45/53/13 41/54/13
f 41/55/14 46/56/14 42/57/14
f 42/58/15 47/59/15 43/60/15
f 45/61/7 48/62/7 49/63/7
f 47/64/7 46/65/7 49/63/7
f 48/62/7 47/64/7 49/63/7
f 46/65/7 45/61/7 49/63/7
f 17/66/16 24/67/16 50/68/16
f 25/69/17 26/70/17 50/71/17
f 18/72/18 27/73/18 28/74/18
f 33/75/19 30/76/19 35/77/19
f 31/78/20 36/79/20 29/80/20
f 34/81/21 35/82/21 36/83/21
f 32/84/22 29/85/22 30/86/22
f 37/87/23 21/88/23 22/89/23
f 39/90/24 19/91/24 20/92/24
f 38/93/16 20/94/16 21/95/16
f 40/96/25 22/97/25 19/98/25
f 25/99/26 18/100/26 28/101/26
f 31/25/6 25/31/6 28/26/6
f 33/28/6 27/32/6 26/29/6
f 32/30/6 26/29/6 25/31/6
f 34/27/6 28/26/6 27/32/6
f 24/33/7 20/40/7 19/34/7
f 18/36/7 22/39/7 21/37/7
f 23/35/7 19/34/7 22/39/7
f 17/38/7 21/37/7 20/40/7
f 43/41/8 47/102/8 48/42/8
f 40/44/9 39/51/9 43/45/9
f 38/47/10 37/50/10 41/48/10
f 37/50/11 40/44/11 44/46/11
f 39/51/12 38/47/12 42/49/12
f 44/52/13 48/103/13 45/53/13
f 41/55/14 45/104/14 46/56/14
f 42/58/15 46/105/15 47/59/15
f 26/106/27 27/107/27 50/68/27
f 27/107/28 17/66/28 50/68/28
f 50/71/24 24/108/24 23/109/24
f 23/109/29 25/69/29 50/71/29
f 18/72/18 17/110/18 27/73/18
f 33/75/19 32/111/19 30/76/19
f 31/78/20 34/112/20 36/79/20
f 34/81/21 33/113/21 35/82/21
f 32/84/22 31/114/22 29/85/22
f 37/87/23 38/115/23 21/88/23
f 39/90/24 40/116/24 19/91/24
f 38/93/16 39/117/16 20/94/16
f 40/96/25 37/118/25 22/97/25
f 25/99/26 23/119/26 18/100/26
