# Blender v2.81 (sub 16) OBJ File: 'rockLP.blend'
# www.blender.org
mtllib p.mtl
o rock1_Cube.001
v 4.282959 4.878278 -8.781281
v 8.214855 -7.619536 -16.842783
v 4.282959 4.878278 8.781281
v 8.214855 -7.619536 16.842783
v -4.282959 4.878278 -8.781281
v -8.214855 -7.619536 -16.842783
v -4.282959 4.878278 8.781281
v -8.214855 -7.619536 16.842783
v -8.214855 -7.619536 -5.614261
v -8.214855 -7.619536 5.614261
v 5.265932 5.861251 -5.614261
v 5.265932 5.861251 5.614261
v -5.265932 5.861251 5.614261
v -5.265932 5.861251 -5.614261
v 8.214855 -7.619536 5.614261
v 8.214855 -7.619536 -5.614261
v 5.265932 3.333604 -10.796654
v 5.265932 -2.142966 -10.796654
v -5.265932 -2.142966 10.796654
v -5.265932 3.333604 10.796654
v 5.265932 3.333604 10.796654
v 5.265932 -2.142966 10.796654
v -5.265932 3.333604 -10.796654
v -5.265932 -2.142966 -10.796654
v 8.214855 3.333604 -5.614261
v 8.214855 -2.142966 -5.614261
v 8.214855 3.333604 5.614261
v 8.214855 -2.142966 5.614261
v -8.214855 3.333604 5.614261
v -8.214855 -2.142966 5.614261
v -8.214855 3.333604 -5.614261
v -8.214855 -2.142966 -5.614261
v 2.738285 -7.619536 -16.842783
v -2.738285 -7.619536 -16.842783
v 2.738285 5.861251 10.796654
v -2.738285 5.861251 10.796654
v -2.738285 -7.619536 16.842783
v 2.738285 -7.619536 16.842783
v -2.738285 5.861251 -10.796654
v 2.738285 5.861251 -10.796654
v 2.738285 -7.619536 -5.614261
v -2.738285 -7.619536 -5.614261
v 2.738285 -7.619536 5.614261
v -2.738285 -7.619536 5.614261
v -2.738285 8.810174 -5.614261
v 2.738285 8.810174 -5.614261
v -2.738285 8.810174 5.614261
v 2.738285 8.810174 5.614261
v -2.738285 -2.142966 -16.842783
v 2.738285 -2.142966 -16.842783
v -2.738285 3.333604 -16.842783
v 2.738285 3.333604 -16.842783
v -2.738285 -2.142966 16.842783
v -2.738285 3.333604 16.842783
v 5.265932 -2.142966 18.202757
v 8.214855 -7.619536 24.248886
v 2.738285 -7.619536 24.248886
v -8.214855 -7.619536 24.248886
v -5.265932 -2.142966 18.202757
v 4.282959 4.878278 16.187384
v 5.265932 3.333604 18.202757
v -2.738285 -2.142966 24.248886
v 2.738285 5.861251 18.202757
v -2.738285 5.861251 18.202757
v -2.738285 -7.619536 24.248886
v -2.738285 3.333604 24.248886
v 6.466094 -0.745992 27.284367
v 7.706349 -7.656453 34.913509
v 3.276651 -7.656453 34.913509
v -8.063509 -7.656453 34.913509
v -6.823254 -0.745992 27.284367
v 5.225756 8.113575 24.741323
v 6.466094 6.164470 27.284367
v -3.633811 -0.745992 34.913509
v 3.276651 9.353913 27.284367
v -3.633811 9.353913 27.284367
v -3.633811 -7.656453 34.913509
v 3.276651 -0.745992 34.913509
v 3.276651 6.164470 34.913509
v -3.633811 6.164470 34.913509
vt 0.625000 0.166667
vt 0.541667 0.250000
vt 0.541667 0.166667
vt 0.625000 0.416667
vt 0.541667 0.500000
vt 0.541667 0.416667
vt 0.625000 0.666667
vt 0.541667 0.750000
vt 0.541667 0.666667
vt 0.625000 0.916667
vt 0.541667 1.000000
vt 0.541667 0.916667
vt 0.375000 0.666667
vt 0.291667 0.750000
vt 0.291667 0.666667
vt 0.875000 0.666667
vt 0.791667 0.750000
vt 0.791667 0.666667
vt 0.291667 0.500000
vt 0.375000 0.583333
vt 0.291667 0.583333
vt 0.625000 0.750000
vt 0.541667 0.833333
vt 0.541667 0.750000
vt 0.625000 0.833333
vt 0.625000 0.583333
vt 0.541667 0.583333
vt 0.541667 0.000000
vt 0.625000 0.083333
vt 0.541667 0.083333
vt 0.458333 0.583333
vt 0.375000 0.666667
vt 0.375000 0.583333
vt 0.458333 0.666667
vt 0.458333 0.500000
vt 0.375000 0.500000
vt 0.208333 0.583333
vt 0.125000 0.666667
vt 0.125000 0.583333
vt 0.208333 0.666667
vt 0.208333 0.500000
vt 0.125000 0.500000
vt 0.625000 0.666667
vt 0.708333 0.750000
vt 0.708333 0.666667
vt 0.208333 0.750000
vt 0.125000 0.750000
vt 0.458333 0.750000
vt 0.375000 0.750000
vt 0.458333 0.416667
vt 0.375000 0.750000
vt 0.291667 0.750000
vt 0.625000 1.000000
vt 0.541667 1.000000
vt 0.458333 0.250000
vt 0.375000 0.250000
vt 0.375000 0.250000
vt 0.208333 0.750000
vt 0.125000 0.750000
vt 0.791667 0.500000
vt 0.708333 0.583333
vt 0.708333 0.500000
vt 0.791667 0.583333
vt 0.625000 0.583333
vt 0.625000 0.500000
vt 0.458333 0.083333
vt 0.375000 0.166667
vt 0.375000 0.083333
vt 0.458333 0.000000
vt 0.375000 0.000000
vt 0.458333 0.833333
vt 0.375000 0.916667
vt 0.375000 0.833333
vt 0.458333 0.916667
vt 0.458333 0.750000
vt 0.875000 0.583333
vt 0.375000 1.000000
vt 0.458333 1.000000
vt 0.458333 1.000000
vt 0.458333 0.500000
vt 0.458333 0.416667
vt 0.541667 1.000000
vt 0.458333 1.000000
vt 0.375000 0.500000
vt 0.458333 0.500000
vt 0.541667 0.416667
vt 0.625000 0.416667
vt 0.625000 0.416667
vt 0.458333 0.416667
vt 0.541667 0.416667
vt 0.375000 1.000000
vt 0.375000 1.000000
vt 0.625000 1.000000
vt 0.375000 0.500000
vt 0.375000 0.416667
vt 0.541667 0.250000
vt 0.458333 0.333333
vt 0.458333 0.250000
vt 0.541667 0.333333
vt 0.375000 0.250000
vt 0.375000 0.333333
vt 0.625000 0.333333
vt 0.458333 0.250000
vt 0.375000 0.250000
vt 0.375000 0.750000
vt 0.291667 0.750000
vt 0.208333 0.750000
vt 0.125000 0.750000
vt 0.625000 0.250000
vt 0.625000 0.500000
vt 0.625000 0.750000
vt 0.375000 0.750000
vt 0.875000 0.750000
vt 0.375000 0.500000
vt 0.625000 0.000000
vt 0.458333 0.166667
vt 0.875000 0.500000
vt 0.625000 1.000000
vt 0.625000 0.250000
vt 0.458333 0.250000
vt 0.280330 0.280330
vt 0.719670 0.719670
vt 0.280330 0.719670
vt 0.186277 0.813723
vt 0.813723 0.186277
vt 0.813723 0.813723
vt 0.280330 0.280330
vt 0.719670 0.719670
vt 0.280330 0.719670
vt 0.280330 0.719670
vt 0.719670 0.280330
vt 0.719670 0.719670
vt 0.719670 0.719670
vt 0.280330 0.280330
vt 0.719670 0.280330
vt 0.719670 0.280330
vt 0.280330 0.719670
vt 0.280330 0.280330
vt 0.796192 0.719425
vt 0.203808 0.203808
vt 0.796192 0.249958
vt 0.719670 0.280330
vt 0.186277 0.186277
vt 0.719670 0.280330
vt 0.280330 0.280330
vt 0.280330 0.719670
vt 0.719670 0.719670
vt 0.203808 0.796192
vn -0.7120 0.6103 0.3473
vn -0.6781 0.6781 0.2835
vn -0.6103 0.7120 -0.3473
vn 0.0000 -1.0000 0.0000
vn 0.6103 0.7120 0.3473
vn 0.6781 0.6781 -0.2835
vn 0.6103 0.7120 -0.3473
vn 0.6508 0.7593 0.0000
vn -0.6103 0.7120 0.3473
vn -0.6508 0.7593 0.0000
vn -0.7120 0.6103 -0.3473
vn -0.7593 0.6508 0.0000
vn -1.0000 0.0000 0.0000
vn -0.8805 0.4741 0.0000
vn -0.8691 0.0000 0.4946
vn 1.0000 0.0000 0.0000
vn 0.8805 0.4741 0.0000
vn 0.8691 0.0000 -0.4946
vn 0.0000 0.7412 -0.6713
vn 0.9226 0.0000 -0.3857
vn 0.8691 0.0000 0.4946
vn -0.8691 0.0000 -0.4946
vn -0.9226 0.0000 0.3857
vn 0.8437 0.5369 0.0000
vn 0.5369 0.8437 0.0000
vn -0.9226 0.0000 -0.3857
vn 0.0000 0.0000 -1.0000
vn 0.7593 0.6508 0.0000
vn 0.7995 0.4569 -0.3900
vn -0.6781 0.6781 -0.2835
vn 0.0000 1.0000 0.0000
vn 0.7995 0.4569 0.3900
vn 0.0000 -1.0000 -0.0035
vn -0.9381 0.2800 -0.2039
vn -0.9913 -0.1218 -0.0509
vn 0.2511 0.9623 -0.1050
vn -0.9965 0.0000 -0.0837
vn 0.0000 0.0000 1.0000
vn 0.9226 0.0000 0.3857
vn 0.6781 0.6781 0.2835
vn 0.1155 0.9248 -0.3625
vn 0.9269 0.3057 -0.2178
vn 0.9728 0.2267 0.0472
vn 0.9914 0.0000 -0.1310
vn -0.7995 0.4569 0.3900
vn -0.6938 0.6938 0.1934
vn -0.4569 0.7995 -0.3900
vn 0.4569 0.7995 0.3900
vn 0.6938 0.6938 -0.1934
vn 0.4569 0.7995 -0.3900
vn -0.4569 0.7995 0.3900
vn -0.7995 0.4569 -0.3900
vn 0.7120 0.6103 -0.3473
vn -0.6938 0.6938 -0.1934
vn 0.7120 0.6103 0.3473
vn -0.9812 0.1922 0.0146
vn -0.7941 0.5090 0.3320
vn 0.7941 0.5090 0.3320
vn 0.6938 0.6938 0.1934
vn 0.9340 0.3134 -0.1716
vn 0.0000 0.8691 -0.4946
vn 0.0000 0.9226 -0.3857
vn 0.0000 0.8691 0.4946
vn 0.0000 0.9226 0.3857
vn 0.0000 0.9334 -0.3590
g rock1_Cube.001_Material.001
usemtl Material.001
s off
f 13/1/1 36/2/1 47/3/1
f 36/4/2 20/5/2 54/6/2
f 14/7/3 23/8/3 31/9/3
f 15/10/4 38/11/4 43/12/4
f 12/13/5 21/14/5 27/15/5
f 40/16/6 17/17/6 52/18/6
f 17/19/7 11/20/7 25/21/7
f 11/20/8 27/15/8 25/21/8
f 2/22/4 41/23/4 33/24/4
f 16/25/4 43/12/4 41/23/4
f 20/5/9 13/26/9 29/27/9
f 13/26/10 31/9/10 29/27/10
f 39/28/11 14/29/11 45/30/11
f 14/29/12 47/3/12 45/30/12
f 30/31/13 9/32/13 10/33/13
f 29/27/13 32/34/13 30/31/13
f 19/35/14 10/33/14 8/36/14
f 20/5/15 30/31/15 19/35/15
f 26/37/16 15/38/16 16/39/16
f 25/21/16 28/40/16 26/37/16
f 18/41/17 16/39/17 2/42/17
f 17/19/18 26/37/18 18/41/18
f 33/43/19 18/44/19 2/22/19
f 52/18/20 18/44/20 50/45/20
f 15/38/17 22/46/17 4/47/17
f 27/15/21 22/46/21 28/40/21
f 9/32/14 24/48/14 6/49/14
f 31/9/22 24/48/22 32/34/22
f 54/6/23 19/35/23 53/50/23
f 21/14/24 60/51/24 61/52/24
f 4/53/4 57/54/4 38/11/4
f 35/55/25 60/56/25 3/57/25
f 4/47/17 55/58/17 56/59/17
f 23/60/26 49/61/26 24/62/26
f 51/63/27 50/45/27 49/61/27
f 24/62/19 34/64/19 6/65/19
f 49/61/27 33/43/27 34/64/27
f 46/66/28 12/67/28 11/68/28
f 40/69/29 11/68/29 1/70/29
f 42/71/4 10/72/4 9/73/4
f 41/23/4 44/74/4 42/71/4
f 34/75/4 9/73/4 6/49/4
f 33/24/4 42/71/4 34/75/4
f 23/60/30 39/76/30 51/63/30
f 44/74/4 8/77/4 10/72/4
f 43/12/4 37/78/4 44/74/4
f 38/11/4 65/79/4 37/78/4
f 53/50/31 59/80/31 62/81/31
f 12/67/32 35/55/32 3/57/32
f 65/79/33 69/82/33 77/83/33
f 58/84/34 71/85/34 59/80/34
f 66/86/35 76/87/35 64/88/35
f 62/81/36 71/85/36 74/89/36
f 66/86/37 74/89/37 80/90/37
f 58/91/33 77/83/33 70/92/33
f 56/93/33 69/82/33 57/54/33
f 21/14/16 55/58/16 22/46/16
f 8/36/14 59/80/14 19/35/14
f 37/78/4 58/91/4 8/77/4
f 54/6/13 64/88/13 36/4/13
f 53/50/13 66/86/13 54/6/13
f 74/89/38 70/94/38 77/95/38
f 73/96/39 78/97/39 67/98/39
f 79/99/38 74/89/38 78/97/38
f 68/100/38 78/97/38 69/101/38
f 78/97/38 77/95/38 69/101/38
f 73/96/40 75/102/40 79/99/40
f 63/103/41 72/104/41 60/56/41
f 61/52/42 72/105/42 73/106/42
f 56/59/43 67/107/43 68/108/43
f 61/52/44 67/107/44 55/58/44
f 13/1/45 7/109/45 36/2/45
f 36/4/46 7/110/46 20/5/46
f 14/7/47 5/111/47 23/8/47
f 15/10/4 4/53/4 38/11/4
f 12/13/48 3/112/48 21/14/48
f 40/16/49 1/113/49 17/17/49
f 17/19/50 1/114/50 11/20/50
f 11/20/8 12/13/8 27/15/8
f 2/22/4 16/25/4 41/23/4
f 16/25/4 15/10/4 43/12/4
f 20/5/51 7/110/51 13/26/51
f 13/26/10 14/7/10 31/9/10
f 39/28/52 5/115/52 14/29/52
f 14/29/12 13/1/12 47/3/12
f 30/31/13 32/34/13 9/32/13
f 29/27/13 31/9/13 32/34/13
f 19/35/15 30/31/15 10/33/15
f 20/5/15 29/27/15 30/31/15
f 26/37/16 28/40/16 15/38/16
f 25/21/16 27/15/16 28/40/16
f 18/41/18 26/37/18 16/39/18
f 17/19/18 25/21/18 26/37/18
f 33/43/20 50/45/20 18/44/20
f 52/18/20 17/17/20 18/44/20
f 15/38/21 28/40/21 22/46/21
f 27/15/21 21/14/21 22/46/21
f 9/32/22 32/34/22 24/48/22
f 31/9/22 23/8/22 24/48/22
f 54/6/23 20/5/23 19/35/23
f 21/14/24 3/112/24 60/51/24
f 4/53/4 56/93/4 57/54/4
f 35/55/25 63/103/25 60/56/25
f 4/47/17 22/46/17 55/58/17
f 23/60/26 51/63/26 49/61/26
f 51/63/27 52/18/27 50/45/27
f 24/62/26 49/61/26 34/64/26
f 49/61/27 50/45/27 33/43/27
f 46/66/28 48/116/28 12/67/28
f 40/69/53 46/66/53 11/68/53
f 42/71/4 44/74/4 10/72/4
f 41/23/4 43/12/4 44/74/4
f 34/75/4 42/71/4 9/73/4
f 33/24/4 41/23/4 42/71/4
f 23/60/54 5/117/54 39/76/54
f 44/74/4 37/78/4 8/77/4
f 43/12/4 38/11/4 37/78/4
f 38/11/4 57/54/4 65/79/4
f 53/50/31 19/35/31 59/80/31
f 12/67/55 48/116/55 35/55/55
f 65/79/33 57/54/33 69/82/33
f 58/84/56 70/94/56 71/85/56
f 66/86/35 80/90/35 76/87/35
f 62/81/36 59/80/36 71/85/36
f 66/86/37 62/81/37 74/89/37
f 58/91/33 65/79/33 77/83/33
f 56/93/33 68/118/33 69/82/33
f 21/14/16 61/52/16 55/58/16
f 8/36/14 58/84/14 59/80/14
f 37/78/4 65/79/4 58/91/4
f 54/6/13 66/86/13 64/88/13
f 53/50/13 62/81/13 66/86/13
f 74/89/57 71/85/57 70/94/57
f 73/96/39 79/99/39 78/97/39
f 79/99/38 80/90/38 74/89/38
f 68/100/58 67/98/58 78/97/58
f 78/97/38 74/89/38 77/95/38
f 73/96/59 72/119/59 75/102/59
f 63/103/41 75/120/41 72/104/41
f 61/52/42 60/51/42 72/105/42
f 56/59/60 55/58/60 67/107/60
f 61/52/44 73/106/44 67/107/44
g rock1_Cube.001_Material.002
usemtl Material.002
f 36/121/31 63/122/31 35/123/31
f 45/124/31 48/125/31 46/126/31
f 39/127/61 46/128/61 40/129/61
f 39/130/62 52/131/62 51/132/62
f 47/133/63 35/134/63 48/135/63
f 75/136/64 80/137/64 79/138/64
f 64/139/65 75/140/65 63/141/65
f 36/121/31 64/142/31 63/122/31
f 45/124/31 47/143/31 48/125/31
f 39/127/61 45/144/61 46/128/61
f 39/130/62 40/145/62 52/131/62
f 47/133/63 36/146/63 35/134/63
f 75/136/64 76/147/64 80/137/64
f 64/139/65 76/148/65 75/140/65
