# Blender v2.82 (sub 7) OBJ File: 'pinolegoplano.blend'
# www.blender.org
mtllib pinolegoplano.mtl
o Cube
v 1.000000 31.445509 -1.000000
v 1.000000 31.445509 1.000000
v -1.000000 31.445509 -1.000000
v -1.000000 31.445509 1.000000
v 1.000000 2.791514 -1.000000
v -1.000000 2.791514 1.000000
v 1.000000 2.791514 1.000000
v -1.000000 2.791514 -1.000000
v -5.379330 0.001719 -5.379330
v -5.379330 0.001719 5.379330
v 5.379330 0.001719 -5.379330
v 5.379330 2.791514 -5.379330
v 5.379330 2.791514 5.379330
v 5.379330 0.001719 5.379330
v -5.379330 2.791514 -5.379330
v -5.379330 2.791514 5.379330
vt 0.147434 0.666399
vt 0.002354 0.772933
vt 0.000400 0.665065
vt 0.721112 0.555279
vt 0.229760 0.610558
vt 0.229760 0.555279
vt 0.258161 0.609079
vt 0.782856 0.553508
vt 0.782423 0.610902
vt 0.724213 0.552913
vt 0.229760 0.606076
vt 0.229760 0.555030
vt 0.729110 0.555341
vt 0.226045 0.612339
vt 0.226320 0.557042
vt 0.585526 0.725838
vt 0.002368 0.999131
vt 0.402698 0.725838
vt 0.399223 0.722879
vt 0.998677 0.998574
vt 0.587159 0.722879
vt 0.400819 0.721291
vt 1.002360 0.994158
vt 0.596068 0.721291
vt 0.600826 0.719802
vt 0.000926 0.998504
vt 0.413333 0.719252
vt 0.996701 0.555415
vt 0.001754 0.666261
vt 0.996701 0.666261
vt 0.002801 0.663242
vt 0.986200 0.557445
vt 0.002801 0.557445
vt 0.001813 0.554762
vt 0.998883 0.665904
vt 0.001813 0.665904
vt 0.998673 0.660978
vt 0.000070 0.556192
vt 0.998673 0.556192
vt 0.004931 0.998574
vt 1.001050 1.000620
vt -0.004544 1.000507
vt 0.985857 0.999131
vt 0.001754 0.555415
vt 0.998883 0.554762
vt 0.000070 0.660978
vt 0.986200 0.663242
vt 0.721112 0.610558
vt 0.258594 0.551684
vt 0.728835 0.610638
vt 0.724213 0.603959
vt 0.147434 0.771599
vn 0.0000 1.0000 0.0000
vn 0.0000 0.0000 1.0000
vn -1.0000 0.0000 0.0000
vn 1.0000 0.0000 0.0000
vn 0.0000 0.0000 -1.0000
usemtl troncopino
s off
f 3/1/1 2/2/1 1/3/1
f 2/4/2 6/5/2 7/6/2
f 4/7/3 8/8/3 6/9/3
f 1/10/4 7/11/4 5/12/4
f 3/13/5 5/14/5 8/15/5
f 7/16/1 12/17/1 5/18/1
f 6/19/1 13/20/1 7/21/1
f 5/22/1 15/23/1 8/24/1
f 8/25/1 16/26/1 6/27/1
f 15/28/5 11/29/5 9/30/5
f 12/31/4 14/32/4 11/33/4
f 16/34/3 9/35/3 10/36/3
f 13/37/2 10/38/2 14/39/2
f 6/19/1 16/40/1 13/20/1
f 8/25/1 15/41/1 16/26/1
f 5/22/1 12/42/1 15/23/1
f 7/16/1 13/43/1 12/17/1
f 15/28/5 12/44/5 11/29/5
f 16/34/3 15/45/3 9/35/3
f 13/37/2 16/46/2 10/38/2
f 12/31/4 13/47/4 14/32/4
f 2/4/2 4/48/2 6/5/2
f 4/7/3 3/49/3 8/8/3
f 3/13/5 1/50/5 5/14/5
f 1/10/4 2/51/4 7/11/4
f 3/1/1 4/52/1 2/2/1
o Cube.011_Cube.019
v 0.984673 28.764688 2.186645
v 0.984673 30.764688 2.186645
v -0.984673 28.764688 2.186645
v -0.984673 30.764688 2.186645
v 0.984673 28.764688 -2.186645
v 0.984673 30.764688 -2.186645
v -0.984673 28.764688 -2.186645
v -0.984673 30.764688 -2.186645
v -13.198853 9.793024 0.984673
v -13.198853 11.793024 0.984673
v -13.198853 9.793024 -0.984673
v -13.198853 11.793024 -0.984673
v 13.198853 9.793024 0.984673
v 13.198853 11.793024 0.984673
v 13.198853 9.793024 -0.984673
v 13.198853 11.793024 -0.984673
v -10.604057 14.327805 0.984673
v -10.604057 16.327805 0.984673
v -10.604057 14.327805 -0.984673
v -10.604057 16.327805 -0.984673
v 10.604057 14.327805 0.984673
v 10.604057 16.327805 0.984673
v 10.604057 14.327805 -0.984673
v 10.604057 16.327805 -0.984673
v -7.717714 18.435982 0.984673
v -7.717714 20.435982 0.984673
v -7.717714 18.435982 -0.984673
v -7.717714 20.435982 -0.984673
v 7.717714 18.435982 0.984673
v 7.717714 20.435982 0.984673
v 7.717714 18.435982 -0.984673
v 7.717714 20.435982 -0.984673
v -4.831241 22.437580 0.984673
v -4.831241 24.437580 0.984673
v -4.831241 22.437580 -0.984673
v -4.831241 24.437580 -0.984673
v 4.831241 22.437580 0.984673
v 4.831241 24.437580 0.984673
v 4.831241 22.437580 -0.984673
v 4.831241 24.437580 -0.984673
v -2.186645 26.487700 0.984673
v -2.186645 28.487700 0.984673
v -2.186645 26.487700 -0.984673
v -2.186645 28.487700 -0.984673
v 2.186645 26.487700 0.984673
v 2.186645 28.487700 0.984673
v 2.186645 26.487700 -0.984673
v 2.186645 28.487700 -0.984673
v -10.604057 5.875498 0.984673
v -10.604057 7.875498 0.984673
v -10.604057 5.875498 -0.984673
v -10.604057 7.875498 -0.984673
v 10.604057 5.875498 0.984673
v 10.604057 7.875498 0.984673
v 10.604057 5.875498 -0.984673
v 10.604057 7.875498 -0.984673
v 0.984674 12.070013 13.198854
v 0.984674 14.070013 13.198854
v -0.984672 12.070013 13.198854
v -0.984672 14.070013 13.198854
v 0.984672 12.070013 -13.198854
v 0.984672 14.070013 -13.198854
v -0.984674 12.070013 -13.198854
v -0.984674 14.070013 -13.198854
v 0.984673 16.604794 10.604058
v 0.984673 18.604794 10.604058
v -0.984672 16.604794 10.604058
v -0.984672 18.604794 10.604058
v 0.984672 16.604794 -10.604058
v 0.984672 18.604794 -10.604058
v -0.984673 16.604794 -10.604058
v -0.984673 18.604794 -10.604058
v 0.984673 20.712971 7.717715
v 0.984673 22.712971 7.717715
v -0.984673 20.712971 7.717715
v -0.984673 22.712971 7.717715
v 0.984673 20.712971 -7.717715
v 0.984673 22.712971 -7.717715
v -0.984673 20.712971 -7.717715
v -0.984673 22.712971 -7.717715
v 0.984673 24.714569 4.831242
v 0.984673 26.714569 4.831242
v -0.984673 24.714569 4.831242
v -0.984673 26.714569 4.831242
v 0.984673 24.714569 -4.831242
v 0.984673 26.714569 -4.831242
v -0.984673 24.714569 -4.831242
v -0.984673 26.714569 -4.831242
v 0.984673 8.152489 10.604058
v 0.984673 10.152489 10.604058
v -0.984672 8.152489 10.604058
v -0.984672 10.152489 10.604058
v 0.984672 8.152489 -10.604058
v 0.984672 10.152489 -10.604058
v -0.984673 8.152489 -10.604058
v -0.984673 10.152489 -10.604058
vt 0.005435 0.335585
vt 0.150175 0.439056
vt 0.005435 0.439056
vt 0.305198 0.328304
vt -0.001507 0.440175
vt 0.305198 0.440175
vt 0.007144 0.328390
vt 0.155750 0.439040
vt 0.007144 0.439040
vt -0.002446 0.436569
vt 0.304858 0.329242
vt -0.002446 0.329242
vt 0.309892 0.004731
vt 0.004085 0.106573
vt 0.004085 0.004731
vt 0.298327 0.667206
vt 0.008022 0.777515
vt 0.008022 0.667206
vt 0.150175 0.335585
vt -0.001507 0.328304
vt 0.155750 0.328390
vt 0.304858 0.436569
vt 0.309892 0.106573
vt 0.298327 0.777515
vt 0.384163 0.609712
vt 0.235212 0.501616
vt 0.384723 0.502176
vt 0.003289 0.439535
vt 0.999630 0.552955
vt 0.005108 0.552735
vt 0.223923 0.551846
vt 0.072288 0.444170
vt 0.224553 0.442539
vt 0.994216 0.552877
vt 0.005784 0.441520
vt 0.992060 0.443597
vt 0.995547 0.101997
vt -0.002531 0.217606
vt -0.000070 0.101997
vt 0.010221 0.882701
vt 0.993805 0.777906
vt 0.991885 0.884058
vt 0.234652 0.609153
vt 0.998911 0.439277
vt 0.071658 0.553477
vt 0.007940 0.550801
vt 0.995547 0.217606
vt 0.005945 0.776651
vt 0.526055 0.416465
vt 0.399536 0.358436
vt 0.525418 0.357799
vt 0.998718 0.655400
vt -0.003000 0.556971
vt 0.996969 0.552221
vt 0.006611 0.580214
vt 0.142154 0.643914
vt 0.006247 0.643551
vt 0.000620 0.671088
vt 0.990552 0.556351
vt 0.005760 0.549051
vt 0.992187 0.217333
vt 0.007813 0.323333
vt 0.007813 0.217333
vt 1.000000 0.662667
vt 0.003906 0.776667
vt 0.003906 0.662667
vt 0.400172 0.417101
vt -0.001251 0.660150
vt 0.142517 0.580577
vt 0.990334 0.664949
vt 0.992187 0.323333
vt 1.000000 0.776667
vt 0.488757 0.474433
vt 0.343821 0.406295
vt 0.489162 0.406699
vt 0.772135 0.555044
vt 0.003455 0.663677
vt 0.770985 0.664561
vt 0.144596 0.637695
vt 0.033800 0.578440
vt 0.144836 0.578679
vt -0.002151 0.660835
vt 0.772722 0.555799
vt 0.003258 0.553670
vt 0.771850 0.212151
vt -0.005216 0.328810
vt -0.005216 0.212151
vt 0.760285 0.891559
vt 0.001821 0.995518
vt 0.001821 0.891559
vt 0.343417 0.474028
vt 0.004605 0.554159
vt 0.033561 0.637456
vt 0.767313 0.662963
vt 0.771850 0.328810
vt 0.760285 0.995518
vt 0.073843 0.501800
vt 0.226515 0.608870
vt 0.074238 0.611084
vt 0.544516 0.550315
vt -0.000648 0.665536
vt 0.543909 0.663198
vt 0.076169 0.606393
vt 0.237571 0.504339
vt 0.237818 0.606195
vt 0.002158 0.501609
vt 0.544080 0.608876
vt 0.003339 0.612636
vt 0.002373 0.162341
vt 0.543869 0.274590
vt 0.543869 0.162341
vt 0.533796 0.944720
vt 0.002634 0.835947
vt 0.002634 0.944720
vt 0.229221 0.501702
vt -0.005700 0.555140
vt 0.073461 0.502856
vt 0.542210 0.499243
vt 0.002373 0.274590
vt 0.533796 0.835947
vt 0.003145 0.504157
vt 0.152807 0.602589
vt 0.003145 0.602589
vt 0.001673 0.553271
vt 0.306300 0.662154
vt 0.001673 0.662896
vt 0.155858 0.549877
vt 0.001275 0.446406
vt 0.155858 0.446406
vt 0.007809 0.558348
vt 0.302711 0.444557
vt 0.007809 0.444557
vt 0.303691 0.210035
vt 0.004085 0.330926
vt 0.004085 0.210035
vt 0.301769 0.776199
vt 0.008022 0.891808
vt 0.008022 0.777879
vt 0.152807 0.504157
vt 0.306300 0.553140
vt 0.001275 0.549877
vt 0.302711 0.558348
vt 0.303691 0.330926
vt 0.301769 0.890128
vt 0.459420 0.498262
vt 0.616649 0.610585
vt 0.458473 0.609778
vt 0.993160 0.497823
vt -0.000151 0.382831
vt 0.990812 0.389136
vt 0.000443 0.446688
vt 0.156250 0.549328
vt 0.000866 0.549625
vt 0.990873 0.555086
vt 0.002926 0.447778
vt 0.992316 0.447916
vt 0.995078 0.044945
vt 0.000984 0.159487
vt 0.000984 0.044945
vt 0.992815 0.722236
vt 0.008022 0.834661
vt 0.008022 0.722236
vt 0.614666 0.498402
vt 0.003777 0.496893
vt 0.155827 0.446390
vt 0.001483 0.554947
vt 0.995078 0.159487
vt 0.992815 0.834661
vt 0.464001 0.499611
vt 0.309670 0.611818
vt 0.309670 0.499611
vt 0.997119 0.548839
vt -0.000220 0.444562
vt 0.995367 0.443789
vt 0.158563 0.547750
vt -0.001869 0.446149
vt 0.155247 0.444201
vt -0.001478 0.548592
vt 1.001478 0.437339
vt -0.004433 0.439313
vt 0.998179 0.106325
vt 0.000984 0.216633
vt 0.000984 0.106325
vt 0.998615 0.775290
vt 0.005322 0.889551
vt 0.005032 0.776477
vt 0.464001 0.611818
vt 0.001533 0.549612
vt 0.001446 0.549699
vt 1.004433 0.546618
vt 0.998179 0.216633
vt 0.998905 0.888363
vt 0.149173 0.662202
vt 0.004748 0.558777
vt 0.151500 0.560424
vt 0.770911 0.443697
vt -0.001522 0.324782
vt 0.771416 0.326787
vt 0.004375 0.329680
vt 0.151576 0.439870
vt 0.004375 0.439870
vt -0.000546 0.438473
vt 0.769936 0.322069
vt -0.000546 0.322069
vt 0.775976 0.213545
vt -0.006256 0.325793
vt -0.006256 0.213545
vt 0.770405 0.661952
vt 0.005352 0.773286
vt 0.005352 0.661952
vt 0.002421 0.660555
vt -0.002027 0.441691
vt 0.151576 0.329680
vt 0.769936 0.438473
vt 0.775976 0.325793
vt 0.770405 0.773286
vt 0.543350 0.440095
vt 0.717083 0.554925
vt 0.543350 0.554925
vt 0.545247 0.327764
vt -0.004105 0.443401
vt 0.545247 0.443401
vt 0.154489 0.489155
vt -0.000896 0.386218
vt 0.154489 0.386218
vt 0.000655 0.439571
vt 0.531186 0.332590
vt 0.000655 0.332590
vt 0.542421 0.108441
vt 0.010285 0.218750
vt 0.010285 0.108441
vt 0.530856 0.662973
vt 0.008022 0.773282
vt 0.008022 0.662973
vt 0.717083 0.440095
vt -0.004105 0.327764
vt -0.000896 0.489155
vt 0.531186 0.439571
vt 0.542421 0.218750
vt 0.530856 0.773282
vt 0.142910 0.657015
vt 0.004482 0.556537
vt 0.138184 0.554912
vt 0.004937 0.555775
vt 0.994416 0.660646
vt 0.006492 0.666041
vt 0.697300 0.492815
vt 0.623628 0.387616
vt 0.696974 0.386604
vt 1.003478 0.661893
vt 0.004546 0.560354
vt 1.003875 0.559737
vt 0.994478 0.215492
vt 0.000140 0.327561
vt -0.001140 0.215492
vt 0.010293 0.886496
vt 1.004391 0.998539
vt 1.005030 0.890729
vt 0.009208 0.658640
vt 0.996412 0.551376
vt 0.623954 0.493826
vt 0.001689 0.662688
vt 0.994819 0.330228
vt 0.009654 0.994306
vt 0.154265 0.662666
vt 0.008629 0.560940
vt 0.150816 0.561724
vt 0.002506 0.554502
vt 0.997494 0.662509
vt 0.003788 0.661331
vt 0.004112 0.553563
vt 0.152138 0.661771
vt 0.000265 0.658921
vt 0.990028 0.659802
vt 0.009972 0.552599
vt 0.990060 0.552631
vt 1.001279 0.214268
vt 0.000984 0.330926
vt 0.000984 0.214268
vt 0.006890 0.885209
vt 0.997047 0.995518
vt 0.997047 0.885209
vt 0.012078 0.661882
vt 0.996212 0.555680
vt 0.155985 0.556413
vt 0.009940 0.659769
vt 1.001279 0.330926
vt 0.006890 0.995518
vn 0.0000 0.0000 1.0000
vn -1.0000 0.0000 0.0000
vn 0.0000 0.0000 -1.0000
vn 1.0000 0.0000 -0.0000
vn 0.0000 -1.0000 0.0000
vn 0.0000 1.0000 0.0000
usemtl Hojaspino
s off
f 18/53/6 19/54/6 17/55/6
f 20/56/7 23/57/7 19/58/7
f 24/59/8 21/60/8 23/61/8
f 22/62/9 17/63/9 21/64/9
f 23/65/10 17/66/10 19/67/10
f 20/68/11 22/69/11 24/70/11
f 18/53/6 20/71/6 19/54/6
f 20/56/7 24/72/7 23/57/7
f 24/59/8 22/73/8 21/60/8
f 22/62/9 18/74/9 17/63/9
f 23/65/10 21/75/10 17/66/10
f 20/68/11 18/76/11 22/69/11
f 26/77/7 27/78/7 25/79/7
f 28/80/8 31/81/8 27/82/8
f 32/83/9 29/84/9 31/85/9
f 30/86/6 25/87/6 29/88/6
f 31/89/10 25/90/10 27/91/10
f 28/92/11 30/93/11 32/94/11
f 26/77/7 28/95/7 27/78/7
f 28/80/8 32/96/8 31/81/8
f 32/83/9 30/97/9 29/84/9
f 30/86/6 26/98/6 25/87/6
f 31/89/10 29/99/10 25/90/10
f 28/92/11 26/100/11 30/93/11
f 34/101/7 35/102/7 33/103/7
f 36/104/8 39/105/8 35/106/8
f 40/107/9 37/108/9 39/109/9
f 38/110/6 33/111/6 37/112/6
f 39/113/10 33/114/10 35/115/10
f 36/116/11 38/117/11 40/118/11
f 34/101/7 36/119/7 35/102/7
f 36/104/8 40/120/8 39/105/8
f 40/107/9 38/121/9 37/108/9
f 38/110/6 34/122/6 33/111/6
f 39/113/10 37/123/10 33/114/10
f 36/116/11 34/124/11 38/117/11
f 42/125/7 43/126/7 41/127/7
f 44/128/8 47/129/8 43/130/8
f 48/131/9 45/132/9 47/133/9
f 46/134/6 41/135/6 45/136/6
f 47/137/10 41/138/10 43/139/10
f 44/140/11 46/141/11 48/142/11
f 42/125/7 44/143/7 43/126/7
f 44/128/8 48/144/8 47/129/8
f 48/131/9 46/145/9 45/132/9
f 46/134/6 42/146/6 41/135/6
f 47/137/10 45/147/10 41/138/10
f 44/140/11 42/148/11 46/141/11
f 50/149/7 51/150/7 49/151/7
f 52/152/8 55/153/8 51/154/8
f 56/155/9 53/156/9 55/157/9
f 54/158/6 49/159/6 53/160/6
f 55/161/10 49/162/10 51/163/10
f 52/164/11 54/165/11 56/166/11
f 50/149/7 52/167/7 51/150/7
f 52/152/8 56/168/8 55/153/8
f 56/155/9 54/169/9 53/156/9
f 54/158/6 50/170/6 49/159/6
f 55/161/10 53/171/10 49/162/10
f 52/164/11 50/172/11 54/165/11
f 58/173/7 59/174/7 57/175/7
f 60/176/8 63/177/8 59/178/8
f 64/179/9 61/180/9 63/181/9
f 62/182/6 57/183/6 61/184/6
f 63/185/10 57/186/10 59/187/10
f 60/188/11 62/189/11 64/190/11
f 58/173/7 60/191/7 59/174/7
f 60/176/8 64/192/8 63/177/8
f 64/179/9 62/193/9 61/180/9
f 62/182/6 58/194/6 57/183/6
f 63/185/10 61/195/10 57/186/10
f 60/188/11 58/196/11 62/189/11
f 74/197/6 75/198/6 73/199/6
f 76/200/7 79/201/7 75/202/7
f 80/203/8 77/204/8 79/205/8
f 78/206/9 73/207/9 77/208/9
f 79/209/10 73/210/10 75/211/10
f 76/212/11 78/213/11 80/214/11
f 74/197/6 76/215/6 75/198/6
f 76/200/7 80/216/7 79/201/7
f 80/203/8 78/217/8 77/204/8
f 78/206/9 74/218/9 73/207/9
f 79/209/10 77/219/10 73/210/10
f 76/212/11 74/220/11 78/213/11
f 82/221/6 83/222/6 81/223/6
f 84/224/7 87/225/7 83/226/7
f 88/227/8 85/228/8 87/229/8
f 86/230/9 81/231/9 85/232/9
f 87/233/10 81/234/10 83/235/10
f 84/236/11 86/237/11 88/238/11
f 82/221/6 84/239/6 83/222/6
f 84/224/7 88/240/7 87/225/7
f 88/227/8 86/241/8 85/228/8
f 86/230/9 82/242/9 81/231/9
f 87/233/10 85/243/10 81/234/10
f 84/236/11 82/244/11 86/237/11
f 90/245/6 91/246/6 89/247/6
f 92/248/7 95/249/7 91/250/7
f 96/251/8 93/252/8 95/253/8
f 94/254/9 89/255/9 93/256/9
f 95/257/10 89/258/10 91/259/10
f 92/260/11 94/261/11 96/262/11
f 90/245/6 92/263/6 91/246/6
f 92/248/7 96/264/7 95/249/7
f 96/251/8 94/265/8 93/252/8
f 94/254/9 90/266/9 89/255/9
f 95/257/10 93/267/10 89/258/10
f 92/260/11 90/268/11 94/261/11
f 98/269/6 99/270/6 97/271/6
f 100/272/7 103/273/7 99/274/7
f 104/275/8 101/276/8 103/277/8
f 102/278/9 97/279/9 101/280/9
f 103/281/10 97/282/10 99/283/10
f 100/284/11 102/285/11 104/286/11
f 98/269/6 100/287/6 99/270/6
f 100/272/7 104/288/7 103/273/7
f 104/275/8 102/289/8 101/276/8
f 102/278/9 98/290/9 97/279/9
f 103/281/10 101/291/10 97/282/10
f 100/284/11 98/292/11 102/285/11
usemtl Material.006
f 66/293/7 67/294/7 65/295/7
f 68/296/8 71/297/8 67/298/8
f 72/299/9 69/300/9 71/301/9
f 70/302/6 65/303/6 69/304/6
f 71/305/10 65/306/10 67/307/10
f 68/308/11 70/309/11 72/310/11
f 66/293/7 68/311/7 67/294/7
f 68/296/8 72/312/8 71/297/8
f 72/299/9 70/313/9 69/300/9
f 70/302/6 66/314/6 65/303/6
f 71/305/10 69/315/10 65/306/10
f 68/308/11 66/316/11 70/309/11
f 106/317/6 107/318/6 105/319/6
f 108/320/7 111/321/7 107/322/7
f 112/323/8 109/324/8 111/325/8
f 110/326/9 105/327/9 109/328/9
f 111/329/10 105/330/10 107/331/10
f 108/332/11 110/333/11 112/334/11
f 106/317/6 108/335/6 107/318/6
f 108/320/7 112/336/7 111/321/7
f 112/323/8 110/337/8 109/324/8
f 110/326/9 106/338/9 105/327/9
f 111/329/10 109/339/10 105/330/10
f 108/332/11 106/340/11 110/333/11
