# Blender v2.82 (sub 7) OBJ File: 'pinolego.blend'
# www.blender.org
mtllib pinolego.mtl
o Cube
v -2.209918 22.544016 0.392515
v -2.209918 -1.000000 0.392515
v -0.209919 22.544016 0.392515
v -0.209919 -1.000000 0.392515
v -2.209918 22.544016 2.392515
v -2.209918 -1.000000 2.392515
v -0.209919 22.544016 2.392514
v -0.209919 -1.000000 2.392514
vt 0.005007 0.334338
vt 0.154098 0.662996
vt 0.005007 0.662996
vt 0.002913 0.334338
vt 0.152004 0.662996
vt 0.002913 0.662996
vt 0.004001 0.333948
vt 0.154098 0.659152
vt 0.004001 0.659152
vt 0.005007 0.336065
vt 0.152004 0.661268
vt 0.005007 0.661268
vt 0.154098 0.334338
vt 0.152004 0.334338
vt 0.154098 0.333948
vt 0.152004 0.336065
vn 1.0000 0.0000 -0.0000
vn 0.0000 0.0000 1.0000
vn -0.0000 0.0000 -1.0000
vn -1.0000 0.0000 0.0000
usemtl Material
s off
f 3/1/1 8/2/1 4/3/1
f 7/4/2 6/5/2 8/6/2
f 1/7/3 4/8/3 2/9/3
f 5/10/4 2/11/4 6/12/4
f 3/1/1 7/13/1 8/2/1
f 7/4/2 5/14/2 6/5/2
f 1/7/3 3/15/3 4/8/3
f 5/10/4 1/16/4 2/11/4
o Cube.004
v -2.207492 22.380936 0.394943
v -1.771665 24.380936 0.830768
v -0.212347 22.380936 0.394942
v -0.648172 24.380936 0.830768
v -2.207491 22.380936 2.390088
v -1.771665 24.380936 1.954261
v -0.212346 22.380936 2.390087
v -0.648172 24.380936 1.954261
v -2.198681 24.380936 0.403753
v -0.221157 24.380936 0.403752
v -0.221156 24.380936 2.381276
v -2.198680 24.380936 2.381277
v -0.212346 22.380936 1.392514
v -0.221157 24.380936 1.392514
v -2.207491 22.380936 1.392515
v -2.198680 24.380936 1.392515
v -0.415489 24.380936 1.392514
v -2.004348 24.380936 1.392515
v -1.209919 22.380936 0.394942
v -1.209919 24.380936 0.403753
v -1.209918 22.380936 2.390087
v -1.209918 24.380936 2.381276
v -1.209919 24.380936 0.598085
v -1.209918 24.380936 2.186944
v -1.209919 24.787420 0.598085
v -0.648172 24.787420 0.830768
v -0.415489 24.787420 1.392514
v -0.648172 24.787420 1.954261
v -1.209918 24.787420 2.186944
v -1.771665 24.787420 1.954261
v -2.004348 24.787420 1.392515
v -1.771665 24.787420 0.830768
v -1.209919 24.787420 1.392515
v 3.076172 10.652068 5.646021
v 3.069198 12.652068 5.639047
v -12.734611 10.652068 5.646022
v -12.727636 12.652068 5.639048
v 3.076171 10.652068 -10.164761
v 3.069197 12.652068 -10.157787
v -12.734612 10.652068 -10.164760
v -12.727637 12.652068 -10.157785
v -2.619313 14.938616 2.866717
v -2.571965 16.938616 2.819369
v -2.619313 14.938616 -7.855123
v -2.571965 16.938616 -7.807774
v 8.102527 14.938616 2.866717
v 8.055179 16.938616 2.819369
v 8.102527 14.938616 -7.855123
v 8.055179 16.938616 -7.807774
v 0.012218 19.055386 2.797246
v -0.010875 21.055386 2.774154
v -5.217083 19.055386 2.797246
v -5.193990 21.055386 2.774154
v 0.012217 19.055386 -2.432055
v -0.010876 21.055386 -2.408961
v -5.217083 19.055386 -2.432054
v -5.193991 21.055386 -2.408961
v -2.377028 6.277071 2.624627
v -2.329680 8.277071 2.577279
v -2.377028 6.277071 -8.097213
v -2.329680 8.277071 -8.049866
v 8.344812 6.277071 2.624627
v 8.297463 8.277071 2.577279
v 8.344812 6.277071 -8.097213
v 8.297463 8.277071 -8.049866
v -2.511022 12.849933 0.272070
v -2.504048 14.849933 0.279044
v 13.299760 12.849933 0.272062
v 13.292786 14.849933 0.279036
v -2.511014 12.849933 16.082853
v -2.504040 14.849933 16.075878
v 13.299768 12.849933 16.082846
v 13.292794 14.849933 16.075871
v 0.199475 17.046713 -0.081689
v 0.152127 19.046713 -0.034341
v 0.199478 17.046713 10.640150
v 0.152130 19.046713 10.592802
v -10.522366 17.046713 -0.081686
v -10.475018 19.046713 -0.034338
v -10.522362 17.046713 10.640154
v -10.475014 19.046713 10.592806
v -2.432055 20.917427 -0.012216
v -2.408962 22.917427 0.010876
v 2.797246 20.917427 -0.012219
v 2.774153 22.917427 0.010874
v -2.432053 20.917427 5.217084
v -2.408960 22.917427 5.193991
v 2.797248 20.917427 5.217082
v 2.774155 22.917427 5.193989
v -0.042811 8.476038 0.160401
v -0.090159 10.476038 0.207749
v -0.042807 8.476038 10.882239
v -0.090156 10.476038 10.834892
v -10.764652 8.476038 0.160404
v -10.717303 10.476038 0.207752
v -10.764648 8.476038 10.882243
v -10.717299 10.476038 10.834896
v -15.412683 12.587826 10.723161
v -15.365335 14.587826 10.675813
v -15.412683 12.587826 0.001321
v -15.365335 14.587826 0.048669
v -4.690843 12.587826 10.723162
v -4.738192 14.587826 10.675814
v -4.690843 12.587826 0.001322
v -4.738191 14.587826 0.048670
v 5.004576 10.807076 5.834003
v 5.051924 12.807076 5.786655
v 5.004576 10.807076 -4.887837
v 5.051925 12.807076 -4.840488
v 15.726414 10.807076 5.834003
v 15.679068 12.807076 5.786656
v 15.726414 10.807076 -4.887836
v 15.679068 12.807076 -4.840487
v -0.330982 8.450318 11.798295
v -0.283634 10.450318 11.750947
v -0.330982 8.450318 1.076455
v -0.283633 10.450318 1.123803
v 10.390857 8.450318 11.798295
v 10.343509 10.450318 11.750947
v 10.390858 8.450318 1.076456
v 10.343510 10.450318 1.123804
vt 0.000083 0.520300
vt 0.472552 0.401353
vt 0.343987 0.682637
vt 0.762120 0.682637
vt 0.587880 0.360097
vt 0.999917 0.447865
vt 0.999917 0.162419
vt 0.527448 0.281367
vt 0.656013 0.000083
vt 0.237880 0.000083
vt 0.412120 0.322622
vt 0.000083 0.234854
vt 0.552930 0.352684
vt 0.529271 0.331705
vt 0.551063 0.322984
vt 0.483411 0.377493
vt 0.437228 0.363922
vt 0.448937 0.359736
vt 0.533050 0.384212
vt 0.526918 0.376219
vt 0.516589 0.305226
vt 0.562772 0.318797
vt 0.447070 0.330035
vt 0.466950 0.298507
vt 0.473082 0.306501
vt 0.530319 0.348630
vt 0.514143 0.361342
vt 0.470730 0.351014
vt 0.500000 0.341360
vt 0.469681 0.334090
vt 0.485857 0.321378
vt 0.510649 0.320662
vt 0.489351 0.362058
vt -0.066668 0.329252
vt 0.378288 0.383512
vt -0.066668 0.383512
vt 0.459877 0.386255
vt 0.003755 0.334114
vt 0.459877 0.334114
vt 0.082314 0.330098
vt 0.004228 0.663053
vt 0.004228 0.330098
vt 0.005183 0.609874
vt 0.458171 0.663473
vt 0.005183 0.663473
vt 0.539081 -0.001253
vt -0.003906 0.326000
vt -0.003906 -0.001253
vt 0.458046 0.665320
vt 0.001870 0.997635
vt 0.001870 0.665320
vt 0.006643 0.383512
vt 0.304978 0.329252
vt 0.304978 0.383512
vt 0.389049 0.386255
vt 0.074583 0.334114
vt 0.389049 0.334114
vt 0.004228 0.387289
vt 0.082314 0.605862
vt 0.004228 0.605862
vt 0.080391 0.663473
vt 0.382963 0.609874
vt 0.382963 0.663473
vt 0.454388 0.049790
vt 0.080787 0.274956
vt 0.080787 0.049790
vt 0.384922 0.718589
vt 0.074994 0.944365
vt 0.074994 0.718589
vt 0.006643 0.329252
vt 0.304978 0.383512
vt 0.006643 0.383512
vt 0.305892 0.334114
vt 0.157741 0.386255
vt 0.157741 0.334114
vt 0.082314 0.491195
vt 0.004228 0.387289
vt 0.082314 0.387289
vt 0.158013 0.609874
vt 0.305341 0.663473
vt 0.158013 0.663473
vt 0.534851 0.164655
vt 0.383136 0.269425
vt 0.383136 0.164655
vt 0.305246 0.776632
vt 0.154671 0.886322
vt 0.154671 0.776632
vt 0.006643 0.329252
vt 0.304978 0.383512
vt 0.006643 0.383512
vt 0.389049 0.386255
vt 0.074583 0.334114
vt 0.389049 0.334114
vt 0.004228 0.387289
vt 0.082314 0.605862
vt 0.004228 0.605862
vt 0.080391 0.609874
vt 0.382963 0.663473
vt 0.080391 0.663473
vt 0.454388 0.049790
vt 0.080787 0.274956
vt 0.080787 0.049790
vt 0.384922 0.718589
vt 0.074994 0.944365
vt 0.074994 0.718589
vt -0.066668 0.329252
vt 0.378288 0.383512
vt -0.066668 0.383512
vt 0.459877 0.386255
vt 0.003755 0.334114
vt 0.459877 0.334114
vt 0.082314 0.330098
vt 0.004228 0.663053
vt 0.004228 0.330098
vt 0.005183 0.609874
vt 0.458171 0.663473
vt 0.005183 0.663473
vt 0.539081 -0.001253
vt -0.003906 0.326000
vt -0.003906 -0.001253
vt 0.458046 0.665320
vt 0.001870 0.997635
vt 0.001870 0.665320
vt 0.006643 0.329252
vt 0.304978 0.383512
vt 0.006643 0.383512
vt 0.389049 0.386255
vt 0.074583 0.334114
vt 0.389049 0.334114
vt 0.004228 0.387289
vt 0.082314 0.605862
vt 0.004228 0.605862
vt 0.080391 0.609874
vt 0.382963 0.663473
vt 0.080391 0.663473
vt 0.454388 0.049790
vt 0.080787 0.274956
vt 0.080787 0.049790
vt 0.384922 0.718589
vt 0.074994 0.944365
vt 0.074994 0.718589
vt 0.006643 0.329252
vt 0.304978 0.383512
vt 0.006643 0.383512
vt 0.305892 0.386255
vt 0.157741 0.334114
vt 0.305892 0.334114
vt 0.082314 0.491195
vt 0.004228 0.387289
vt 0.082314 0.387289
vt 0.158013 0.609874
vt 0.305341 0.663473
vt 0.158013 0.663473
vt 0.534851 0.164655
vt 0.383136 0.269425
vt 0.383136 0.164655
vt 0.305246 0.776632
vt 0.154671 0.886322
vt 0.154671 0.776632
vt 0.006643 0.329252
vt 0.304978 0.383512
vt 0.006643 0.383512
vt 0.389049 0.386255
vt 0.074583 0.334114
vt 0.389049 0.334114
vt 0.004228 0.387289
vt 0.082314 0.605862
vt 0.004228 0.605862
vt 0.080391 0.609874
vt 0.382963 0.663473
vt 0.080391 0.663473
vt 0.454388 0.049790
vt 0.080787 0.274956
vt 0.080787 0.049790
vt 0.384922 0.718589
vt 0.074994 0.944365
vt 0.074994 0.718589
vt 0.006643 0.329252
vt 0.304978 0.383512
vt 0.006643 0.383512
vt 0.389049 0.334114
vt 0.074583 0.386255
vt 0.074583 0.334114
vt 0.082314 0.387289
vt 0.004228 0.605862
vt 0.004228 0.387289
vt 0.080391 0.609874
vt 0.382963 0.663473
vt 0.080391 0.663473
vt 0.454388 0.049790
vt 0.080787 0.274956
vt 0.080787 0.049790
vt 0.384922 0.718589
vt 0.074994 0.944365
vt 0.074994 0.718589
vt 0.006643 0.383512
vt 0.304978 0.329252
vt 0.304978 0.383512
vt 0.389049 0.386255
vt 0.074583 0.334114
vt 0.389049 0.334114
vt 0.082314 0.387289
vt 0.004228 0.605862
vt 0.004228 0.387289
vt 0.080391 0.609874
vt 0.382963 0.663473
vt 0.080391 0.663473
vt 0.454388 0.049790
vt 0.080787 0.274956
vt 0.080787 0.049790
vt 0.384922 0.718589
vt 0.074994 0.944365
vt 0.074994 0.718589
vt 0.006643 0.329252
vt 0.304978 0.383512
vt 0.006643 0.383512
vt 0.389049 0.386255
vt 0.074583 0.334114
vt 0.389049 0.334114
vt 0.082314 0.387289
vt 0.004228 0.605862
vt 0.004228 0.387289
vt 0.080391 0.663473
vt 0.382963 0.609874
vt 0.382963 0.663473
vt 0.454388 0.049790
vt 0.080787 0.274956
vt 0.080787 0.049790
vt 0.384922 0.718589
vt 0.074994 0.944365
vt 0.074994 0.718589
vt 0.378288 0.329252
vt 0.003755 0.386255
vt 0.082314 0.663053
vt 0.458171 0.609874
vt 0.539081 0.326000
vt 0.458046 0.997635
vt 0.006643 0.329252
vt 0.074583 0.386255
vt 0.082314 0.387289
vt 0.080391 0.609874
vt 0.454388 0.274956
vt 0.384922 0.944365
vt 0.304978 0.329252
vt 0.305892 0.386255
vt 0.004228 0.491195
vt 0.305341 0.609874
vt 0.534851 0.269425
vt 0.305246 0.886322
vt 0.304978 0.329252
vt 0.074583 0.386255
vt 0.082314 0.387289
vt 0.382963 0.609874
vt 0.454388 0.274956
vt 0.384922 0.944365
vt 0.378288 0.329252
vt 0.003755 0.386255
vt 0.082314 0.663053
vt 0.458171 0.609874
vt 0.539081 0.326000
vt 0.458046 0.997635
vt 0.304978 0.329252
vt 0.074583 0.386255
vt 0.082314 0.387289
vt 0.382963 0.609874
vt 0.454388 0.274956
vt 0.384922 0.944365
vt 0.304978 0.329252
vt 0.157741 0.386255
vt 0.004228 0.491195
vt 0.305341 0.609874
vt 0.534851 0.269425
vt 0.305246 0.886322
vt 0.304978 0.329252
vt 0.074583 0.386255
vt 0.082314 0.387289
vt 0.382963 0.609874
vt 0.454388 0.274956
vt 0.384922 0.944365
vt 0.304978 0.329252
vt 0.389049 0.386255
vt 0.082314 0.605862
vt 0.382963 0.609874
vt 0.454388 0.274956
vt 0.384922 0.944365
vt 0.006643 0.329252
vt 0.074583 0.386255
vt 0.082314 0.605862
vt 0.382963 0.609874
vt 0.454388 0.274956
vt 0.384922 0.944365
vt 0.304978 0.329252
vt 0.074583 0.386255
vt 0.082314 0.605862
vt 0.080391 0.609874
vt 0.454388 0.274956
vt 0.384922 0.944365
vn -0.0000 0.0044 -1.0000
vn 1.0000 0.0044 -0.0000
vn 0.0000 0.0044 1.0000
vn -1.0000 0.0044 0.0000
vn 0.3827 0.0000 0.9239
vn 0.0000 1.0000 0.0000
vn 0.9239 0.0000 0.3827
vn 0.9239 0.0000 -0.3827
vn -0.3827 0.0000 -0.9239
vn -0.9239 0.0000 0.3827
vn -0.3827 0.0000 0.9239
vn 0.3827 0.0000 -0.9239
vn -0.9239 0.0000 -0.3827
vn 0.0000 0.0035 1.0000
vn -1.0000 0.0035 0.0000
vn -0.0000 0.0035 -1.0000
vn 1.0000 0.0035 -0.0000
vn 0.0000 -1.0000 0.0000
vn -0.9997 0.0237 -0.0000
vn 0.0000 0.0237 -0.9997
vn 0.9997 0.0237 0.0000
vn -0.0000 0.0237 0.9997
vn 0.0000 0.0115 0.9999
vn -0.9999 0.0115 -0.0000
vn -0.0000 0.0115 -0.9999
vn 0.9999 0.0115 -0.0000
usemtl Material.001
s off
f 27/17/5 18/18/5 11/19/5
f 21/20/6 19/21/6 15/22/6
f 29/23/7 20/24/7 13/25/7
f 23/26/8 17/27/8 9/28/8
f 16/29/9 37/30/9 32/31/9
f 12/32/10 28/33/10 31/34/10
f 16/29/10 22/35/10 25/36/10
f 14/37/10 30/38/10 32/31/10
f 10/39/10 24/40/10 26/41/10
f 14/37/10 24/40/10 20/24/10
f 12/32/10 22/35/10 18/18/10
f 25/36/11 36/42/11 16/29/11
f 20/24/8 23/26/8 13/25/8
f 18/18/6 21/20/6 11/19/6
f 12/32/12 35/43/12 25/36/12
f 16/29/10 30/38/10 19/21/10
f 10/39/10 28/33/10 17/27/10
f 10/39/13 33/44/13 31/34/13
f 19/21/7 29/23/7 15/22/7
f 17/27/5 27/17/5 9/28/5
f 41/45/10 40/46/10 39/47/10
f 41/45/10 38/48/10 37/30/10
f 36/42/10 41/45/10 37/30/10
f 34/49/10 41/45/10 35/43/10
f 14/37/14 39/47/14 26/41/14
f 32/31/15 38/48/15 14/37/15
f 31/34/16 34/49/16 12/32/16
f 26/41/17 40/46/17 10/39/17
f 43/50/18 44/51/18 42/52/18
f 45/53/19 48/54/19 44/55/19
f 49/56/20 46/57/20 48/58/20
f 47/59/21 42/60/21 46/61/21
f 48/62/22 42/63/22 44/64/22
f 45/65/10 47/66/10 49/67/10
f 50/68/23 53/69/23 52/70/23
f 53/71/24 56/72/24 52/73/24
f 56/74/25 55/75/25 54/76/25
f 54/77/26 51/78/26 50/79/26
f 56/80/22 50/81/22 52/82/22
f 53/83/10 55/84/10 57/85/10
f 59/86/27 60/87/27 58/88/27
f 60/89/28 65/90/28 64/91/28
f 64/92/29 63/93/29 62/94/29
f 63/95/30 58/96/30 62/97/30
f 64/98/22 58/99/22 60/100/22
f 61/101/10 63/102/10 65/103/10
f 67/104/23 68/105/23 66/106/23
f 69/107/24 72/108/24 68/109/24
f 72/110/25 71/111/25 70/112/25
f 71/113/26 66/114/26 70/115/26
f 72/116/22 66/117/22 68/118/22
f 69/119/10 71/120/10 73/121/10
f 75/122/20 76/123/20 74/124/20
f 77/125/21 80/126/21 76/127/21
f 81/128/18 78/129/18 80/130/18
f 79/131/19 74/132/19 78/133/19
f 80/134/22 74/135/22 76/136/22
f 77/137/10 79/138/10 81/139/10
f 83/140/25 84/141/25 82/142/25
f 85/143/26 88/144/26 84/145/26
f 88/146/23 87/147/23 86/148/23
f 87/149/24 82/150/24 86/151/24
f 88/152/22 82/153/22 84/154/22
f 85/155/10 87/156/10 89/157/10
f 91/158/29 92/159/29 90/160/29
f 93/161/30 96/162/30 92/163/30
f 96/164/27 95/165/27 94/166/27
f 95/167/28 90/168/28 94/169/28
f 96/170/22 90/171/22 92/172/22
f 93/173/10 95/174/10 97/175/10
f 99/176/25 100/177/25 98/178/25
f 101/179/26 104/180/26 100/181/26
f 104/182/23 103/183/23 102/184/23
f 103/185/24 98/186/24 102/187/24
f 104/188/22 98/189/22 100/190/22
f 101/191/10 103/192/10 105/193/10
f 107/194/23 108/195/23 106/196/23
f 108/197/24 113/198/24 112/199/24
f 113/200/25 110/201/25 112/202/25
f 111/203/26 106/204/26 110/205/26
f 112/206/22 106/207/22 108/208/22
f 109/209/10 111/210/10 113/211/10
f 114/212/23 117/213/23 116/214/23
f 117/215/24 120/216/24 116/217/24
f 121/218/25 118/219/25 120/220/25
f 119/221/26 114/222/26 118/223/26
f 120/224/22 114/225/22 116/226/22
f 117/227/10 119/228/10 121/229/10
f 123/230/23 124/231/23 122/232/23
f 125/233/24 128/234/24 124/235/24
f 129/236/25 126/237/25 128/238/25
f 126/239/26 123/240/26 122/241/26
f 128/242/22 122/243/22 124/244/22
f 125/245/10 127/246/10 129/247/10
f 27/17/5 28/33/5 18/18/5
f 21/20/6 22/35/6 19/21/6
f 29/23/7 30/38/7 20/24/7
f 23/26/8 24/40/8 17/27/8
f 16/29/9 36/42/9 37/30/9
f 12/32/10 18/18/10 28/33/10
f 16/29/10 19/21/10 22/35/10
f 14/37/10 20/24/10 30/38/10
f 10/39/10 17/27/10 24/40/10
f 14/37/10 26/41/10 24/40/10
f 12/32/10 25/36/10 22/35/10
f 25/36/11 35/43/11 36/42/11
f 20/24/8 24/40/8 23/26/8
f 18/18/6 22/35/6 21/20/6
f 12/32/12 34/49/12 35/43/12
f 16/29/10 32/31/10 30/38/10
f 10/39/10 31/34/10 28/33/10
f 10/39/13 40/46/13 33/44/13
f 19/21/7 30/38/7 29/23/7
f 17/27/5 28/33/5 27/17/5
f 41/45/10 33/44/10 40/46/10
f 41/45/10 39/47/10 38/48/10
f 36/42/10 35/43/10 41/45/10
f 34/49/10 33/44/10 41/45/10
f 14/37/14 38/48/14 39/47/14
f 32/31/15 37/30/15 38/48/15
f 31/34/16 33/44/16 34/49/16
f 26/41/17 39/47/17 40/46/17
f 43/50/18 45/248/18 44/51/18
f 45/53/19 49/249/19 48/54/19
f 49/56/20 47/250/20 46/57/20
f 47/59/21 43/251/21 42/60/21
f 48/62/22 46/252/22 42/63/22
f 45/65/10 43/253/10 47/66/10
f 50/68/23 51/254/23 53/69/23
f 53/71/24 57/255/24 56/72/24
f 56/74/25 57/256/25 55/75/25
f 54/77/26 55/257/26 51/78/26
f 56/80/22 54/258/22 50/81/22
f 53/83/10 51/259/10 55/84/10
f 59/86/27 61/260/27 60/87/27
f 60/89/28 61/261/28 65/90/28
f 64/92/29 65/262/29 63/93/29
f 63/95/30 59/263/30 58/96/30
f 64/98/22 62/264/22 58/99/22
f 61/101/10 59/265/10 63/102/10
f 67/104/23 69/266/23 68/105/23
f 69/107/24 73/267/24 72/108/24
f 72/110/25 73/268/25 71/111/25
f 71/113/26 67/269/26 66/114/26
f 72/116/22 70/270/22 66/117/22
f 69/119/10 67/271/10 71/120/10
f 75/122/20 77/272/20 76/123/20
f 77/125/21 81/273/21 80/126/21
f 81/128/18 79/274/18 78/129/18
f 79/131/19 75/275/19 74/132/19
f 80/134/22 78/276/22 74/135/22
f 77/137/10 75/277/10 79/138/10
f 83/140/25 85/278/25 84/141/25
f 85/143/26 89/279/26 88/144/26
f 88/146/23 89/280/23 87/147/23
f 87/149/24 83/281/24 82/150/24
f 88/152/22 86/282/22 82/153/22
f 85/155/10 83/283/10 87/156/10
f 91/158/29 93/284/29 92/159/29
f 93/161/30 97/285/30 96/162/30
f 96/164/27 97/286/27 95/165/27
f 95/167/28 91/287/28 90/168/28
f 96/170/22 94/288/22 90/171/22
f 93/173/10 91/289/10 95/174/10
f 99/176/25 101/290/25 100/177/25
f 101/179/26 105/291/26 104/180/26
f 104/182/23 105/292/23 103/183/23
f 103/185/24 99/293/24 98/186/24
f 104/188/22 102/294/22 98/189/22
f 101/191/10 99/295/10 103/192/10
f 107/194/23 109/296/23 108/195/23
f 108/197/24 109/297/24 113/198/24
f 113/200/25 111/298/25 110/201/25
f 111/203/26 107/299/26 106/204/26
f 112/206/22 110/300/22 106/207/22
f 109/209/10 107/301/10 111/210/10
f 114/212/23 115/302/23 117/213/23
f 117/215/24 121/303/24 120/216/24
f 121/218/25 119/304/25 118/219/25
f 119/221/26 115/305/26 114/222/26
f 120/224/22 118/306/22 114/225/22
f 117/227/10 115/307/10 119/228/10
f 123/230/23 125/308/23 124/231/23
f 125/233/24 129/309/24 128/234/24
f 129/236/25 127/310/25 126/237/25
f 126/239/26 127/311/26 123/240/26
f 128/242/22 126/312/22 122/243/22
f 125/245/10 123/313/10 127/246/10
