# Blender v2.82 (sub 7) OBJ File: ''
# www.blender.org
mtllib sol.mtl
o Cube
v 0.597487 1.000000 -0.597487
v 0.597487 -1.000000 -0.597487
v 0.597487 1.000000 0.597487
v 0.597487 -1.000000 0.597487
v -0.597487 1.000000 -0.597487
v -0.597487 -1.000000 -0.597487
v -0.597487 1.000000 0.597487
v -0.597487 -1.000000 0.597487
v -1.000000 -0.597487 -0.597487
v -1.000000 -0.597487 0.597487
v 1.000000 -0.597487 -0.597487
v 1.000000 0.597487 0.597487
v -1.000000 0.597487 0.597487
v 1.000000 0.597487 -0.597487
v 1.000000 -0.597487 0.597487
v -1.000000 0.597487 -0.597487
v -0.844975 -1.000000 -0.000000
v 0.000000 -1.000000 -0.844975
v -0.000000 1.000000 0.844975
v 0.844975 1.000000 0.000000
v -0.000000 -1.000000 0.844975
v -0.844975 1.000000 -0.000000
v 0.000000 1.000000 -0.844975
v 0.844975 -1.000000 0.000000
v -0.597487 -0.597487 -1.000000
v -0.597487 -0.597487 1.000000
v 0.597487 0.597487 -1.000000
v 0.597487 -0.597487 -1.000000
v -0.597487 0.597487 1.000000
v 0.597487 0.597487 1.000000
v 0.597487 -0.597487 1.000000
v -0.597487 0.597487 -1.000000
v -1.000000 -0.844975 0.000000
v 1.000000 -0.000000 -0.844975
v -1.000000 0.000000 0.844975
v 1.000000 0.000000 0.844975
v -1.000000 -0.000000 -0.844975
v 1.000000 0.844975 -0.000000
v -1.000000 0.844975 -0.000000
v 1.000000 -0.844975 0.000000
v 1.000000 -1.000000 -1.000000
v -1.000000 -1.000000 -1.000000
v 1.000000 1.000000 -1.000000
v -1.000000 -1.000000 1.000000
v -1.000000 1.000000 1.000000
v 1.000000 1.000000 1.000000
v 1.000000 -1.000000 1.000000
v -1.000000 1.000000 -1.000000
v 0.000000 -0.844975 -1.000000
v 0.844975 0.000000 -1.000000
v -0.844975 -0.000000 1.000000
v 0.844975 0.000000 1.000000
v -0.844975 -0.000000 -1.000000
v -0.000000 0.844975 1.000000
v 0.000000 -0.844975 1.000000
v -0.000000 0.844975 -1.000000
v -0.844975 -0.000000 1.400000
v -0.597487 0.597487 1.400000
v 0.844975 0.000000 1.400000
v 0.597487 -0.597487 1.400000
v -0.000000 0.844975 1.400000
v 0.000000 -0.844975 1.400000
v -0.597487 -0.597487 1.400000
v 0.597487 0.597487 1.400000
v 0.000000 0.000000 1.400000
v -0.000000 1.400000 0.844975
v -0.597487 1.400000 0.597487
v 0.844975 1.400000 0.000000
v 0.597487 1.400000 0.597487
v -0.844975 1.400000 -0.000000
v -0.597487 1.400000 -0.597487
v 0.000000 1.400000 -0.844975
v 0.597487 1.400000 -0.597487
v 0.000000 1.400000 0.000000
v -1.400000 -0.844975 0.000000
v -1.400000 -0.597487 0.597487
v -1.400000 0.000000 0.844975
v -1.400000 0.597487 0.597487
v -1.400000 -0.000000 -0.844975
v -1.400000 -0.597487 -0.597487
v -1.400000 0.844975 -0.000000
v -1.400000 0.597487 -0.597487
v -1.400000 0.000000 0.000000
v 0.000000 -0.844975 -1.400000
v -0.597487 -0.597487 -1.400000
v 0.844975 0.000000 -1.400000
v 0.597487 -0.597487 -1.400000
v -0.844975 -0.000000 -1.400000
v -0.000000 0.844975 -1.400000
v 0.597487 0.597487 -1.400000
v -0.597487 0.597487 -1.400000
v 0.000000 0.000000 -1.400000
v 1.400000 -0.000000 -0.844975
v 1.400000 -0.597487 -0.597487
v 1.400000 0.000000 0.844975
v 1.400000 -0.597487 0.597487
v 1.400000 0.844975 -0.000000
v 1.400000 0.597487 0.597487
v 1.400000 -0.844975 0.000000
v 1.400000 0.597487 -0.597487
v 1.400000 0.000000 0.000000
v -0.844975 -1.400000 -0.000000
v -0.597487 -1.400000 0.597487
v 0.000000 -1.400000 -0.844975
v -0.597487 -1.400000 -0.597487
v -0.000000 -1.400000 0.844975
v 0.597487 -1.400000 0.597487
v 0.844975 -1.400000 0.000000
v 0.597487 -1.400000 -0.597487
v 0.000000 -1.400000 0.000000
vt 0.662500 0.712500
vt 0.750000 0.712500
vt 0.750000 0.712500
vt 0.412500 0.875000
vt 0.412500 0.962500
vt 0.412500 0.962500
vt 0.412500 0.212500
vt 0.500000 0.212500
vt 0.500000 0.212500
vt 0.162500 0.712500
vt 0.250000 0.712500
vt 0.250000 0.712500
vt 0.412500 0.625000
vt 0.412500 0.712500
vt 0.412500 0.712500
vt 0.587500 0.287500
vt 0.500000 0.287500
vt 0.500000 0.287500
vt 0.162500 0.625000
vt 0.125000 0.750000
vt 0.125000 0.500000
vt 0.250000 0.537500
vt 0.375000 0.500000
vt 0.875000 0.750000
vt 0.625000 0.750000
vt 0.662500 0.625000
vt 0.625000 0.500000
vt 0.375000 0.750000
vt 0.837500 0.625000
vt 0.875000 0.500000
vt 0.750000 0.537500
vt 0.337500 0.625000
vt 0.162500 0.712500
vt 0.337500 0.712500
vt 0.337500 0.712500
vt 0.337500 0.537500
vt 0.250000 0.537500
vt 0.837500 0.537500
vt 0.750000 0.537500
vt 0.837500 0.712500
vt 0.837500 0.712500
vt 0.662500 0.537500
vt 0.662500 0.537500
vt 0.412500 0.125000
vt 0.375000 0.250000
vt 0.375000 0.000000
vt 0.500000 0.537500
vt 0.500000 0.037500
vt 0.625000 0.000000
vt 0.500000 0.712500
vt 0.625000 0.250000
vt 0.587500 0.625000
vt 0.587500 0.125000
vt 0.500000 0.712500
vt 0.587500 0.712500
vt 0.587500 0.625000
vt 0.412500 0.537500
vt 0.412500 0.625000
vt 0.587500 0.212500
vt 0.587500 0.125000
vt 0.412500 0.212500
vt 0.412500 0.037500
vt 0.412500 0.037500
vt 0.412500 0.375000
vt 0.500000 0.462500
vt 0.500000 0.962500
vt 0.625000 1.000000
vt 0.375000 1.000000
vt 0.500000 0.787500
vt 0.587500 0.875000
vt 0.587500 0.375000
vt 0.412500 0.287500
vt 0.412500 0.375000
vt 0.412500 0.287500
vt 0.587500 0.462500
vt 0.587500 0.462500
vt 0.587500 0.962500
vt 0.587500 0.962500
vt 0.412500 0.787500
vt 0.412500 0.875000
vt 0.587500 0.787500
vt 0.500000 0.787500
vt 0.500000 0.875000
vt 0.500000 0.962500
vt 0.412500 0.787500
vt 0.587500 0.787500
vt 0.587500 0.875000
vt 0.750000 0.625000
vt 0.662500 0.712500
vt 0.662500 0.625000
vt 0.837500 0.537500
vt 0.837500 0.625000
vt 0.500000 0.125000
vt 0.587500 0.212500
vt 0.412500 0.125000
vt 0.587500 0.037500
vt 0.500000 0.037500
vt 0.587500 0.037500
vt 0.500000 0.375000
vt 0.500000 0.462500
vt 0.412500 0.462500
vt 0.587500 0.287500
vt 0.587500 0.375000
vt 0.412500 0.462500
vt 0.500000 0.625000
vt 0.587500 0.712500
vt 0.412500 0.537500
vt 0.587500 0.537500
vt 0.500000 0.537500
vt 0.587500 0.537500
vt 0.250000 0.625000
vt 0.162500 0.625000
vt 0.162500 0.537500
vt 0.337500 0.537500
vt 0.162500 0.537500
vt 0.337500 0.625000
vn 0.3827 0.0000 0.9239
vn -0.3827 -0.9239 0.0000
vn 0.0000 -0.3827 -0.9239
vn -0.3827 0.0000 0.9239
vn 0.0000 -0.9239 0.3827
vn -0.9239 0.3827 0.0000
vn 0.0000 -1.0000 0.0000
vn 0.0000 1.0000 0.0000
vn -0.9239 0.0000 0.3827
vn 0.3827 0.0000 -0.9239
vn -0.3827 0.0000 -0.9239
vn -1.0000 0.0000 0.0000
vn 1.0000 0.0000 0.0000
vn 0.0000 -0.3827 0.9239
vn 0.0000 0.9239 0.3827
vn 0.0000 -0.9239 -0.3827
vn 0.0000 0.9239 -0.3827
vn 0.0000 0.0000 -1.0000
vn 0.0000 0.0000 1.0000
vn -0.9239 -0.3827 0.0000
vn 0.9239 0.3827 0.0000
vn 0.3827 -0.9239 0.0000
vn -0.3827 0.9239 0.0000
vn 0.9239 -0.3827 0.0000
vn 0.3827 0.9239 0.0000
vn -0.9239 0.0000 -0.3827
vn 0.9239 0.0000 0.3827
vn 0.9239 0.0000 -0.3827
vn 0.0000 0.3827 0.9239
vn 0.0000 0.3827 -0.9239
usemtl Material
s off
f 3/1/1 66/2/1 19/3/1
f 55/4/2 63/5/2 26/6/2
f 9/7/3 79/8/3 37/9/3
f 8/10/4 106/11/4 21/12/4
f 40/13/5 96/14/5 15/15/5
f 32/16/6 88/17/6 53/18/6
f 17/19/7 44/20/7 42/21/7
f 18/22/7 42/21/7 41/23/7
f 19/3/8 45/24/8 46/25/8
f 20/26/8 46/25/8 43/27/8
f 21/12/7 47/28/7 44/20/7
f 22/29/8 48/30/8 45/24/8
f 23/31/8 43/27/8 48/30/8
f 24/32/7 41/23/7 47/28/7
f 17/19/9 103/33/9 8/10/9
f 21/12/1 107/34/1 4/35/1
f 2/36/10 104/37/10 18/22/10
f 5/38/11 72/39/11 23/31/11
f 19/3/4 67/40/4 7/41/4
f 23/31/10 73/42/10 1/43/10
f 33/44/12 42/45/12 44/46/12
f 34/47/13 41/23/13 43/27/13
f 35/48/12 44/46/12 45/49/12
f 36/50/13 46/25/13 47/28/13
f 37/9/12 48/51/12 42/45/12
f 38/52/13 43/27/13 46/25/13
f 39/53/12 45/49/12 48/51/12
f 40/13/13 47/28/13 41/23/13
f 15/15/14 95/54/14 36/50/14
f 12/55/15 97/56/15 38/52/15
f 11/57/16 99/58/16 40/13/16
f 16/59/17 81/60/17 39/53/17
f 33/44/16 80/61/16 9/7/16
f 35/48/14 76/62/14 10/63/14
f 49/64/18 41/23/18 42/45/18
f 50/65/18 43/27/18 41/23/18
f 51/66/19 45/67/19 44/68/19
f 52/69/19 47/28/19 46/25/19
f 53/18/18 42/45/18 48/51/18
f 54/70/19 46/25/19 45/67/19
f 55/4/19 44/68/19 47/28/19
f 56/71/18 48/51/18 43/27/18
f 25/72/2 84/73/2 49/64/2
f 53/18/20 85/74/20 25/72/20
f 50/65/21 90/75/21 27/76/21
f 51/66/6 58/77/6 29/78/6
f 31/79/22 62/80/22 55/4/22
f 30/81/21 59/82/21 52/69/21
f 65/83/19 58/77/19 57/84/19
f 65/83/19 63/5/19 62/80/19
f 60/85/19 65/83/19 62/80/19
f 64/86/19 65/83/19 59/82/19
f 26/6/20 57/84/20 51/66/20
f 29/78/23 61/87/23 54/70/23
f 52/69/24 60/85/24 31/79/24
f 54/70/25 64/86/25 30/81/25
f 74/88/8 67/40/8 66/2/8
f 74/88/8 69/89/8 68/90/8
f 73/42/8 74/88/8 68/90/8
f 71/91/8 74/88/8 72/39/8
f 22/29/26 71/91/26 5/38/26
f 20/26/27 69/89/27 3/1/27
f 7/41/9 70/92/9 22/29/9
f 1/43/28 68/90/28 20/26/28
f 83/93/12 82/94/12 79/8/12
f 83/93/12 80/61/12 75/95/12
f 76/62/12 83/93/12 75/95/12
f 78/96/12 83/93/12 77/97/12
f 13/98/29 77/97/29 35/48/29
f 39/53/15 78/96/15 13/98/15
f 10/63/5 75/95/5 33/44/5
f 37/9/30 82/94/30 16/59/30
f 92/99/18 90/75/18 86/100/18
f 92/99/18 87/101/18 84/73/18
f 85/74/18 92/99/18 84/73/18
f 91/102/18 92/99/18 88/17/18
f 27/76/25 89/103/25 56/71/25
f 49/64/22 87/101/22 28/104/22
f 56/71/23 91/102/23 32/16/23
f 28/104/24 86/100/24 50/65/24
f 101/105/13 98/106/13 95/54/13
f 101/105/13 96/14/13 99/58/13
f 94/107/13 101/105/13 99/58/13
f 100/108/13 101/105/13 93/109/13
f 34/47/3 94/107/3 11/57/3
f 38/52/17 100/108/17 14/110/17
f 36/50/29 98/106/29 12/55/29
f 14/110/30 93/109/30 34/47/30
f 110/111/7 107/34/7 106/11/7
f 110/111/7 103/33/7 102/112/7
f 105/113/7 110/111/7 102/112/7
f 109/114/7 110/111/7 104/37/7
f 24/32/28 109/114/28 2/36/28
f 6/115/26 102/112/26 17/19/26
f 4/35/27 108/116/27 24/32/27
f 18/22/11 105/113/11 6/115/11
f 3/1/1 69/89/1 66/2/1
f 55/4/2 62/80/2 63/5/2
f 9/7/3 80/61/3 79/8/3
f 8/10/4 103/33/4 106/11/4
f 40/13/5 99/58/5 96/14/5
f 32/16/6 91/102/6 88/17/6
f 42/21/7 6/115/7 17/19/7
f 17/19/7 8/10/7 44/20/7
f 41/23/7 2/36/7 18/22/7
f 18/22/7 6/115/7 42/21/7
f 46/25/8 3/1/8 19/3/8
f 19/3/8 7/41/8 45/24/8
f 43/27/8 1/43/8 20/26/8
f 20/26/8 3/1/8 46/25/8
f 44/20/7 8/10/7 21/12/7
f 21/12/7 4/35/7 47/28/7
f 45/24/8 7/41/8 22/29/8
f 22/29/8 5/38/8 48/30/8
f 48/30/8 5/38/8 23/31/8
f 23/31/8 1/43/8 43/27/8
f 47/28/7 4/35/7 24/32/7
f 24/32/7 2/36/7 41/23/7
f 17/19/9 102/112/9 103/33/9
f 21/12/1 106/11/1 107/34/1
f 2/36/10 109/114/10 104/37/10
f 5/38/11 71/91/11 72/39/11
f 19/3/4 66/2/4 67/40/4
f 23/31/10 72/39/10 73/42/10
f 44/46/12 10/63/12 33/44/12
f 33/44/12 9/7/12 42/45/12
f 43/27/13 14/110/13 34/47/13
f 34/47/13 11/57/13 41/23/13
f 45/49/12 13/98/12 35/48/12
f 35/48/12 10/63/12 44/46/12
f 47/28/13 15/15/13 36/50/13
f 36/50/13 12/55/13 46/25/13
f 42/45/12 9/7/12 37/9/12
f 37/9/12 16/59/12 48/51/12
f 46/25/13 12/55/13 38/52/13
f 38/52/13 14/110/13 43/27/13
f 48/51/12 16/59/12 39/53/12
f 39/53/12 13/98/12 45/49/12
f 41/23/13 11/57/13 40/13/13
f 40/13/13 15/15/13 47/28/13
f 15/15/14 96/14/14 95/54/14
f 12/55/15 98/106/15 97/56/15
f 11/57/16 94/107/16 99/58/16
f 16/59/17 82/94/17 81/60/17
f 33/44/16 75/95/16 80/61/16
f 35/48/14 77/97/14 76/62/14
f 42/45/18 25/72/18 49/64/18
f 49/64/18 28/104/18 41/23/18
f 41/23/18 28/104/18 50/65/18
f 50/65/18 27/76/18 43/27/18
f 44/68/19 26/6/19 51/66/19
f 51/66/19 29/78/19 45/67/19
f 46/25/19 30/81/19 52/69/19
f 52/69/19 31/79/19 47/28/19
f 48/51/18 32/16/18 53/18/18
f 53/18/18 25/72/18 42/45/18
f 45/67/19 29/78/19 54/70/19
f 54/70/19 30/81/19 46/25/19
f 47/28/19 31/79/19 55/4/19
f 55/4/19 26/6/19 44/68/19
f 43/27/18 27/76/18 56/71/18
f 56/71/18 32/16/18 48/51/18
f 25/72/2 85/74/2 84/73/2
f 53/18/20 88/17/20 85/74/20
f 50/65/21 86/100/21 90/75/21
f 51/66/6 57/84/6 58/77/6
f 31/79/22 60/85/22 62/80/22
f 30/81/21 64/86/21 59/82/21
f 65/83/19 61/87/19 58/77/19
f 65/83/19 57/84/19 63/5/19
f 60/85/19 59/82/19 65/83/19
f 64/86/19 61/87/19 65/83/19
f 26/6/20 63/5/20 57/84/20
f 29/78/23 58/77/23 61/87/23
f 52/69/24 59/82/24 60/85/24
f 54/70/25 61/87/25 64/86/25
f 74/88/8 70/92/8 67/40/8
f 74/88/8 66/2/8 69/89/8
f 73/42/8 72/39/8 74/88/8
f 71/91/8 70/92/8 74/88/8
f 22/29/26 70/92/26 71/91/26
f 20/26/27 68/90/27 69/89/27
f 7/41/9 67/40/9 70/92/9
f 1/43/28 73/42/28 68/90/28
f 83/93/12 81/60/12 82/94/12
f 83/93/12 79/8/12 80/61/12
f 76/62/12 77/97/12 83/93/12
f 78/96/12 81/60/12 83/93/12
f 13/98/29 78/96/29 77/97/29
f 39/53/15 81/60/15 78/96/15
f 10/63/5 76/62/5 75/95/5
f 37/9/30 79/8/30 82/94/30
f 92/99/18 89/103/18 90/75/18
f 92/99/18 86/100/18 87/101/18
f 85/74/18 88/17/18 92/99/18
f 91/102/18 89/103/18 92/99/18
f 27/76/25 90/75/25 89/103/25
f 49/64/22 84/73/22 87/101/22
f 56/71/23 89/103/23 91/102/23
f 28/104/24 87/101/24 86/100/24
f 101/105/13 97/56/13 98/106/13
f 101/105/13 95/54/13 96/14/13
f 94/107/13 93/109/13 101/105/13
f 100/108/13 97/56/13 101/105/13
f 34/47/3 93/109/3 94/107/3
f 38/52/17 97/56/17 100/108/17
f 36/50/29 95/54/29 98/106/29
f 14/110/30 100/108/30 93/109/30
f 110/111/7 108/116/7 107/34/7
f 110/111/7 106/11/7 103/33/7
f 105/113/7 104/37/7 110/111/7
f 109/114/7 108/116/7 110/111/7
f 24/32/28 108/116/28 109/114/28
f 6/115/26 105/113/26 102/112/26
f 4/35/27 107/34/27 108/116/27
f 18/22/11 104/37/11 105/113/11
